<svg viewBox="0 0 56 56" xmlns="http://www.w3.org/2000/svg" xmlns:xlink="http://www.w3.org/1999/xlink" width="56.000000" height="56.000000" fill="none" customFrame="#000000">
	<path id="Звезда 1" d="M34.287 19.3468L54.6296 19.3475L38.1725 31.3052L44.458 50.6525L28 38.696L11.542 50.6525L17.8275 31.3052L1.37042 19.3475L21.7131 19.3468L28 0L34.287 19.3468Z" fill="rgb(255,179,0)" fill-rule="evenodd" />
	<path id="Звезда 1" d="M34.287 19.3468L54.6296 19.3475L38.1725 31.3052L44.458 50.6525L28 38.696L11.542 50.6525L17.8275 31.3052L1.37042 19.3475L21.7131 19.3468L28 0L34.287 19.3468ZM28 3.23569L22.4396 20.3467L4.44774 20.3474L19.003 30.9233L13.4439 48.0347L28 37.46L42.5561 48.0347L36.997 30.9233L51.5523 20.3474L33.5604 20.3467L28 3.23569Z" fill="rgb(255,179,0)" fill-rule="evenodd" />
</svg>
